{"title":"Lilyhammer S03E04 - The Mind Is Like A Monkey - Ehhhh.mkv","uid":11568915,"size":407500214,"categoryP":"video","categoryS":"hd___tv_shows","magnet":"?xt=urn:btih:5f51a5da1b282fa259e92734620e600c09039c14&amp;dn=Lilyhammer+S03E04+-+The+Mind+Is+Like+A+Monkey+-+Ehhhh.mkv&amp;tr=udp%3A%2F%2Ftracker.openbittorrent.com%3A80&amp;tr=udp%3A%2F%2Fopen.demonii.com%3A1337&amp;tr=udp%3A%2F%2Ftracker.coppersurfer.tk%3A6969&amp;tr=udp%3A%2F%2Fexodus.desync.com%3A6969","seeders":8,"leechers":0,"uploader":"mynameisurlz","files":1,"time":1416985306,"description":"20 :03x04 - The Mind is Like a Monkey\nNov/19/2014\nIt is the twentieth anniversary of the Lillehammer Olympics and Torgeir wants to fulfill his lifelong dream to jump at the opening ceremony. But has he really got the nerve tyo go through with it?\n\nGeneral\nFormat : Matroska\nFormat version : Version 4 / Version 2\nFile size : 389 MiB\nDuration : 45mn 19s\nOverall bit rate : 1 199 Kbps\nEncoded date : UTC 2014-11-26 03:07:01\nWriting application : mkvmerge v7.3.0 ('Nouages') 32bit built on Oct 22 2014 18:44:01\nWriting library : libebml v1.3.0 + libmatroska v1.4.1\nDURATION : 00:45:19.744000000\nNUMBER_OF_FRAMES : 84992\nNUMBER_OF_BYTES : 65273856\n_STATISTICS_WRITING_APP : mkvmerge v7.3.0 ('Nouages') 32bit built on Oct 22 2014 18:44:01\n_STATISTICS_WRITING_DATE_UTC : 2014-11-26 03:07:01\n_STATISTICS_TAGS : BPS DURATION NUMBER_OF_FRAMES NUMBER_OF_BYTES\n\nVideo\nID : 1\nFormat : AVC\nFormat/Info : Advanced Video Codec\nFormat profile : &lt;a class=&quot;__cf_email__&quot; href=&quot;/cdn-cgi/l/email-protection&quot; data-cfemail=&quot;cd85a4aaa58d81f9e3fc&quot;&gt;[email&amp;#160;protected]&lt;/a&gt;&lt;script cf-hash='f9e31' type=&quot;text/javascript&quot;&gt;\n/* &lt;![CDATA[ */!function(){try{var t=&quot;currentScript&quot;in document?document.currentScript:function(){for(var t=document.getElementsByTagName(&quot;script&quot;),e=t.length;e--;)if(t[e].getAttribute(&quot;cf-hash&quot;))return t[e]}();if(t&amp;&amp;t.previousSibling){var e,r,n,i,c=t.previousSibling,a=c.getAttribute(&quot;data-cfemail&quot;);if(a){for(e=&quot;&quot;,r=parseInt(a.substr(0,2),16),n=2;a.length-n;n+=2)i=parseInt(a.substr(n,2),16)^r,e+=String.fromCharCode(i);e=document.createTextNode(e),c.parentNode.replaceChild(e,c)}}}catch(u){}}();/* ]]&gt; */&lt;/script&gt;\nFormat settings, CABAC : Yes\nFormat settings, ReFrames : 9 frames\nCodec ID : V_MPEG4/ISO/AVC\nDuration : 45mn 19s\nBit rate : 1 010 Kbps\nWidth : 1 280 pixels\nHeight : 720 pixels\nDisplay aspect ratio : 16:9\nFrame rate mode : Constant\nFrame rate : 25.000 fps\nStandard : NTSC\nColor space : YUV\nChroma subsampling : 4:2:0\nBit depth : 8 bits\nScan type : Progressive\nBits/(Pixel*Frame) : 0.044\nStream size : 319 MiB (82%)\nWriting library : x264 core 142 r2479kMod dd79a61\nDefault : Yes\nForced : No\nColor range : Limited\n\nAudio\nID : 2\nFormat : AC-3\nFormat/Info : Audio Coding 3\nMode extension : CM (complete main)\nFormat settings, Endianness : Big\nCodec ID : A_AC3\nDuration : 45mn 19s\nBit rate mode : Constant\nBit rate : 192 Kbps\nChannel(s) : 2 channels\nChannel positions : Front: L R\nSampling rate : 48.0 KHz\nBit depth : 16 bits\nCompression mode : Lossy\nStream size : 62.3 MiB (16%)\nDefault : Yes\nForced : No","torrent":{"xt":"urn:btih:5f51a5da1b282fa259e92734620e600c09039c14","amp;dn":"Lilyhammer+S03E04+-+The+Mind+Is+Like+A+Monkey+-+Ehhhh.mkv","amp;tr":["udp%3A%2F%2Ftracker.openbittorrent.com%3A80","udp%3A%2F%2Fopen.demonii.com%3A1337","udp%3A%2F%2Ftracker.coppersurfer.tk%3A6969","udp%3A%2F%2Fexodus.desync.com%3A6969"],"infoHash":"5f51a5da1b282fa259e92734620e600c09039c14","infoHashBuffer":{"type":"Buffer","data":[95,81,165,218,27,40,47,162,89,233,39,52,98,14,96,12,9,3,156,20]},"announce":[],"urlList":[]}}